<svg id="Layer_5" enable-background="new 0 0 64 64" height="512" viewBox="0 0 64 64" width="512" xmlns="http://www.w3.org/2000/svg"><g><path d="m61 61h2v2h-2z"/><path d="m1 61h2v2h-2z"/><path d="m50 53c-1.654 0-3 1.346-3 3s1.346 3 3 3v-2c-.551 0-1-.449-1-1s.449-1 1-1 1 .449 1 1h2c0-1.654-1.346-3-3-3z"/><path d="m32.414 9h30.586v-3c0-2.757-2.243-5-5-5h-44c-2.757 0-5 2.243-5 5v35.08c-3.387.488-6 3.401-6 6.92v5.184c-1.161.414-2 1.514-2 2.816 0 1.654 1.346 3 3 3h5v2h-4v2h54v-2h-4.11c.587-.574 1.068-1.251 1.425-2h4.685c1.103 0 2-.897 2-2v-2c0-1.103-.897-2-2-2v-11.351l-4.016-5.02c-2.862-3.577-7.131-5.629-11.713-5.629h-16.792c-4.512 0-8.67 1.99-11.479 5.345v-11.931zm-15.414 12.586v-4.172l8.414-8.414h4.172zm0-7v-5.586h5.586zm-3-11.586h44c1.654 0 3 1.346 3 3v1h-45-1-4v-1c0-1.654 1.346-3 3-3zm-5 46h-4v-1c0-.342.035-.677.101-1h3.899zm0-5.899v1.899h-2.974c.721-.953 1.761-1.652 2.974-1.899zm-5 13.899c-.551 0-1-.449-1-1s.449-1 1-1h3v-2h-2v-2h4v6zm7-48h4v52h-4zm39 40c-2.785 0-5.189 1.639-6.315 4h-8.685v-10h16v2h-4v2h4v2.08c-.328-.047-.66-.08-1-.08zm-6.92 8h-20.16c.047-.328.08-.66.08-1s-.033-.672-.08-1h20.16c-.047.328-.08.66-.08 1s.033.672.08 1zm-10.08-14v2h-4v2h4v6h-10.685c-.335-.701-.778-1.34-1.315-1.89v-8.11zm2-2v-4h8.304c2.605 0 5.024 1.294 6.469 3.462l.359.538zm-2 0h-11.468c1.352-2.438 3.929-4 6.793-4h4.675zm-12 15c0 2.414-1.721 4.434-4 4.899v-9.798c2.279.465 4 2.485 4 4.899zm-.11 5c.587-.574 1.068-1.251 1.425-2h21.37c.357.749.839 1.426 1.425 2zm29.11 0c-2.757 0-5-2.243-5-5s2.243-5 5-5 5 2.243 5 5-2.243 5-5 5zm11-4h-4.08c.047-.328.08-.66.08-1s-.033-.672-.08-1h4.08zm-2-8.184c-1.161-.414-2-1.514-2-2.816s.839-2.402 2-2.816zm-30.521-15.816h16.793c3.971 0 7.67 1.778 10.151 4.879l2.776 3.47c-1.867.726-3.199 2.531-3.199 4.651 0 2.414 1.721 4.434 4 4.899v2.101h-2.685c-.692-1.45-1.865-2.623-3.315-3.315v-7.988l-1.563-2.345c-1.817-2.725-4.857-4.352-8.133-4.352h-14.979c-4.214 0-7.941 2.686-9.273 6.684l-.052.154v7.847c-.622-.297-1.294-.503-2-.605v-9.17c2.26-4.266 6.634-6.91 11.479-6.91z"/></g></svg>