<svg id="Capa_1" enable-background="new 0 0 512.03 512.03" height="512" viewBox="0 0 512.03 512.03" width="512" xmlns="http://www.w3.org/2000/svg"><g><path d="m223.772 264.996c-30.418 12.628-50.072 42.245-50.072 75.455 0 44.969 36.232 81.553 80.768 81.553s80.768-36.584 80.768-81.553c0-20.465-7.539-40.036-21.229-55.108-13.621-14.997-32.135-24.269-52.132-26.106-4.134-.381-7.776 2.658-8.155 6.782-.379 4.125 2.658 7.776 6.782 8.155 34.054 3.13 59.734 31.623 59.734 66.277 0 36.697-29.503 66.553-65.768 66.553s-65.768-29.856-65.768-66.553c0-27.126 16.024-51.307 40.823-61.602 3.826-1.588 5.64-5.977 4.051-9.803-1.587-3.825-5.975-5.64-9.802-4.05z"/><path d="m217.055 340.451c0 20.807 16.783 37.733 37.413 37.733s37.414-16.927 37.414-37.733-16.784-37.734-37.414-37.734-37.413 16.927-37.413 37.734zm37.413-22.735c12.359 0 22.414 10.198 22.414 22.734 0 12.535-10.055 22.733-22.414 22.733-12.358 0-22.413-10.198-22.413-22.733s10.054-22.734 22.413-22.734z"/><path d="m506.56 64.097c-5.356-7.368-13.626-11.594-22.69-11.594h-455.709c-9.064 0-17.334 4.226-22.69 11.594-5.422 7.459-6.898 16.776-4.048 25.564-.344-.739 17.365 43.35 17.815 44.512 5.105 15.55 15.199 28.323 28.137 36.779v86.051c0 44.201 13.987 86.199 40.45 121.453 25.588 34.088 62.005 59.715 102.543 72.16 3.853 1.214 8.166-.973 9.371-4.969 1.215-3.96-1.009-8.155-4.969-9.371-19.167-5.884-36.805-14.571-52.541-25.525l17.053-93.359c8.573-46.933 49.04-80.996 96.222-80.996 47.177 0 87.644 34.06 96.22 80.987l17.157 93.88c-30.47 21.06-67.354 33.239-106.724 33.239-11.105.053-23.695.117-34.624-1.316-4.108-.502-7.844 2.449-8.332 6.563s2.45 7.844 6.563 8.332c11.544 1.508 24.67 1.489 36.392 1.422 98.058 0 181.861-69.927 199.267-166.271.736-4.076-1.971-7.978-6.047-8.714-4.078-.736-7.978 1.972-8.714 6.048-8.069 44.663-31.554 83.193-64.391 110.535l-15.792-86.414c-9.879-54.056-56.551-93.29-110.976-93.29-54.429 0-101.102 39.238-110.977 93.301l-15.677 85.823c-41.376-34.749-66.475-86.568-66.475-143.517v-78.671c7.166 2.5 14.821 3.851 22.729 3.851h341.825c7.907 0 15.562-1.352 22.728-3.851v78.671c0 4.143 3.358 7.5 7.5 7.5s7.5-3.357 7.5-7.5v-86.051c12.938-8.455 23.032-21.229 28.137-36.779.6-1.542 17.935-44.682 17.815-44.512 2.85-8.788 1.374-18.106-4.048-25.565zm-27.955 65.202c-4.328 13.346-13.313 24.108-24.779 30.704-8.036 4.609-17.205 7.179-26.898 7.181h-341.826c-9.411 0-18.373-2.435-26.215-6.797-11.974-6.635-21.247-17.791-25.634-31.564l-12.284-30.66h55.046c4.142 0 7.5-3.357 7.5-7.5s-3.358-7.5-7.5-7.5h-60.786c-.636-3.591.188-7.239 2.374-10.245 2.501-3.44 6.349-5.414 10.558-5.414h455.709c4.208 0 8.056 1.974 10.558 5.414 2.186 3.007 3.01 6.654 2.374 10.245h-385.787c-4.142 0-7.5 3.357-7.5 7.5s3.358 7.5 7.5 7.5h380.046c-.237.637-12.255 30.503-12.456 31.136z"/><path d="m426.515 110.004c-12.407 0-22.5 10.094-22.5 22.5s10.093 22.5 22.5 22.5 22.5-10.094 22.5-22.5-10.093-22.5-22.5-22.5zm0 30c-4.136 0-7.5-3.364-7.5-7.5s3.364-7.5 7.5-7.5 7.5 3.364 7.5 7.5-3.364 7.5-7.5 7.5z"/><path d="m366.515 110.004c-12.407 0-22.5 10.094-22.5 22.5s10.093 22.5 22.5 22.5 22.5-10.094 22.5-22.5-10.093-22.5-22.5-22.5zm0 30c-4.136 0-7.5-3.364-7.5-7.5s3.364-7.5 7.5-7.5 7.5 3.364 7.5 7.5-3.364 7.5-7.5 7.5z"/></g></svg>