<svg height="512pt" viewBox="-56 0 512 512" width="512pt" xmlns="http://www.w3.org/2000/svg"><path d="m50 412c-5.519531 0-10 4.480469-10 10s4.480469 10 10 10 10-4.480469 10-10-4.480469-10-10-10zm0 0"/><path d="m400 502c0-14.054688 0-478.363281 0-492 0-5.523438-4.476562-10-10-10-11.410156 0-368.617188 0-380 0-5.523438 0-10 4.476562-10 10v492c0 5.523438 4.476562 10 10 10h380c5.523438 0 10-4.476562 10-10zm-380-256h100v30c0 16.542969 13.457031 30 30 30h100c16.542969 0 30-13.457031 30-30v-30h100v206h-360zm120 0h120v30c0 5.515625-4.484375 10-10 10h-100c-5.515625 0-10-4.484375-10-10zm0-226h120v30c0 5.515625-4.484375 10-10 10h-100c-5.515625 0-10-4.484375-10-10zm-120 0h100v30c0 16.542969 13.457031 30 30 30h100c16.542969 0 30-13.457031 30-30v-30h100v206h-360zm0 472v-20h360v20zm0 0"/><path d="m230 326h-60c-5.523438 0-10 4.476562-10 10s4.476562 10 10 10h60c5.523438 0 10-4.476562 10-10s-4.476562-10-10-10zm0 0"/><path d="m170 120h60c5.523438 0 10-4.476562 10-10s-4.476562-10-10-10h-60c-5.523438 0-10 4.476562-10 10s4.476562 10 10 10zm0 0"/><path d="m50 266c-5.523438 0-10 4.476562-10 10v106c0 5.523438 4.476562 10 10 10s10-4.476562 10-10v-106c0-5.523438-4.476562-10-10-10zm0 0"/></svg>