<svg id="Icons" height="512" viewBox="0 0 74 74" width="512" xmlns="http://www.w3.org/2000/svg"><path d="m13.069 67.477h-9.116a1.955 1.955 0 0 1 -1.953-1.954v-21.949a1.955 1.955 0 0 1 1.953-1.953h9.116a1.955 1.955 0 0 1 1.953 1.953v21.949a1.955 1.955 0 0 1 -1.953 1.954zm-9.069-23.856v21.9l9.069-.046-.047-21.9z"/><path d="m52.052 56.989h-16.634a1 1 0 0 1 0-2h15.574a6.687 6.687 0 0 0 -6.617-5.781h-5.505c-6.723-.053-9.08-1.536-9.327-1.7a15.229 15.229 0 0 0 -15.06-.408 1 1 0 0 1 -.92-1.776 17.215 17.215 0 0 1 17.048.494c.07.044 2.176 1.347 8.267 1.395h5.5a8.687 8.687 0 0 1 8.677 8.676v.1a1 1 0 0 1 -1.003 1z"/><path d="m56.571 60.27a1 1 0 0 1 -.547-1.838l2.49-1.62a1 1 0 0 1 1.091 1.676l-2.489 1.62a1 1 0 0 1 -.545.162z"/><path d="m39.658 68.868a13.56 13.56 0 0 1 -4.186-.667l-14.072-4.662a10.26 10.26 0 0 0 -5.13-.439 7.764 7.764 0 0 0 -1.826.583 1 1 0 1 1 -.849-1.81 9.774 9.774 0 0 1 2.3-.737 12.268 12.268 0 0 1 6.134.5l14.071 4.664a11.4 11.4 0 0 0 5.609.377 1 1 0 0 1 .371 1.965 13.026 13.026 0 0 1 -2.422.226z"/><path d="m48.261 65.68a1 1 0 0 1 -.546-1.838l2.431-1.58a1 1 0 1 1 1.089 1.676l-2.43 1.581a1 1 0 0 1 -.544.161z"/><path d="m64.941 54.82a1 1 0 0 1 -.545-1.839l4.947-3.216a6.341 6.341 0 0 0 -6.667-.7l-10.655 5.1a1.03 1.03 0 0 1 -1.436-.9 1 1 0 0 1 .648-.938l10.576-5.064a8.329 8.329 0 0 1 9.33 1.4l.525.466a1 1 0 0 1 -.119 1.586l-6.06 3.94a.989.989 0 0 1 -.544.165z"/><path d="m44.512 44.127a19.5 19.5 0 1 1 19.5-19.5 19.523 19.523 0 0 1 -19.5 19.5zm0-37a17.5 17.5 0 1 0 17.5 17.5 17.52 17.52 0 0 0 -17.5-17.5z"/><path d="m44.512 44.127c-5.734 0-10.225-8.565-10.225-19.5s4.491-19.5 10.225-19.5 10.225 8.565 10.225 19.5-4.491 19.5-10.225 19.5zm0-37c-4.458 0-8.225 8.014-8.225 17.5s3.767 17.5 8.225 17.5 8.225-8.014 8.225-17.5-3.766-17.5-8.225-17.5z"/><path d="m44.512 44.127a1 1 0 0 1 -1-1v-37a1 1 0 0 1 2 0v37a1 1 0 0 1 -1 1z"/><path d="m63.012 25.627h-37a1 1 0 0 1 0-2h37a1 1 0 0 1 0 2z"/><path d="m60.576 16.455h-32.122a1 1 0 0 1 0-2h32.122a1 1 0 1 1 0 2z"/><path d="m60.576 34.8h-32.122a1 1 0 0 1 0-2h32.122a1 1 0 0 1 0 2z"/></svg>