<svg id="Line_cutting_stroke_Ex" height="512" viewBox="0 0 512 512" width="512" xmlns="http://www.w3.org/2000/svg" data-name="Line cutting stroke Ex"><g><g><path d="m400 496h-16v-156.6621a8 8 0 0 1 1.3325-4.4209l64.6675-97.5391a72.3 72.3 0 0 0 11.7466-45.7031l-7.1766-87.0176 15.9463-1.3144 7.1763 87.0176a88.3746 88.3746 0 0 1 -14.3576 55.8596l-63.335 95.529z"/><path d="m367.9927 280.001a7.9983 7.9983 0 0 1 -6.9859-11.8858l35.9952-64.792-4.8282-2.4941a31.9351 31.9351 0 0 0 -38.7783 7.37l-11.4228 13.0664-12.0459-10.5312 11.4232-13.0663a47.9023 47.9023 0 0 1 58.167-11.0537l.4834.249v-122.3033a47.9991 47.9991 0 0 1 48.6665-47.9951l7.4448.1035a7.9993 7.9993 0 0 1 7.8618 7.3418l5.2232 63.333-15.9467 1.314-4.626-56.0918-.18-.0029a32.0009 32.0009 0 0 0 -32.444 31.9975v135.4214a7.9937 7.9937 0 0 1 -.8721 3.65v.001l-.0063.0127-.001.002-.0141.0273-.0064.0127-.0015.0029-.0058.0108-.0015.0029-.0058.0117-.001.002-.0069.0127-.0019.0029-.0049.01-.0024.0048-.0049.0088-.002.0039-.0048.01-.0025.0029-.0063.0127-.0025.0049-.0044.0078-.0029.0059-.0039.0068-.0029.0059-.0049.0088-.003.0058-.0058.01-.0025.0049-.0043.0078-.003.0049-.0049.0088-.0019.0039-.0073.0127-40 72a7.9978 7.9978 0 0 1 -7.001 4.116z"/><path d="m312 496h-16v-126.9287l-15.25-55.919a67.8458 67.8458 0 0 1 14.4087-62.6464l20.7813-23.7715 12.0459 10.5312-20.7813 23.7715a51.88 51.88 0 0 0 -11.0181 47.9053l15.5323 56.9531a7.999 7.999 0 0 1 .2812 2.1045z"/></g><g><g><path d="m232 72h16v16h-16z"/><path d="m200 72h16v16h-16z"/><path d="m264 72h16v16h-16z"/><path d="m296 72h16v16h-16z"/><path d="m328 72h16v16h-16z"/><path d="m360 72h16v16h-16z"/></g><g><path d="m198.906 34.059h16v16.001h-16z" transform="matrix(.985 -.174 .174 .985 -4.16 36.565)"/><path d="m230.42 28.502h16v16.001h-16z" transform="matrix(.985 -.174 .174 .985 -2.717 41.953)"/><path d="m261.934 22.945h16v16.001h-16z" transform="matrix(.985 -.174 .174 .985 -1.273 47.34)"/><path d="m293.448 17.389h16v16.001h-16z" transform="matrix(.985 -.174 .174 .985 .171 52.728)"/></g><g><path d="m198.906 109.941h16.001v16h-16.001z" transform="matrix(.174 -.985 .985 .174 54.829 301.224)"/><path d="m230.42 115.498h16.001v16h-16.001z" transform="matrix(.174 -.985 .985 .174 75.398 336.851)"/><path d="m261.933 121.054h16.001v16h-16.001z" transform="matrix(.174 -.985 .985 .174 95.969 372.478)"/><path d="m293.447 126.611h16.001v16h-16.001z" transform="matrix(.174 -.985 .985 .174 116.537 408.104)"/></g></g><g><g><path d="m112 336h16v-16h16v-16h-16v-16h-16v16h-16v16h16z"/><path d="m176 272a8 8 0 0 0 -8-8h-96a8 8 0 0 0 -8 8v80a8 8 0 0 0 8 8h96a8 8 0 0 0 8-8zm-16 72h-80v-64h80z"/><path d="m64 392h64v16h-64z"/><path d="m144 392h32v16h-32z"/><path d="m204.9766 225.043-30.0133-45.02a17.92 17.92 0 0 0 1.0367-6.023v-28a17.9969 17.9969 0 0 0 -8-14.9595v-35.0405h-16v32h-64v-78a2.0023 2.0023 0 0 1 2-2h60a2.0023 2.0023 0 0 1 2 2v30h16v-30a18.0206 18.0206 0 0 0 -18-18h-60a18.0206 18.0206 0 0 0 -18 18v81.0405a17.9969 17.9969 0 0 0 -8 14.9595v28a17.92 17.92 0 0 0 1.0367 6.0232l-30.0133 45.0188a17.9441 17.9441 0 0 0 -3.0234 9.9853v28.9727h16v-28.9727a1.9962 1.9962 0 0 1 .3359-1.1093l27.9453-41.918h87.4376l27.9453 41.9189a1.9912 1.9912 0 0 1 .3359 1.1084v232.9727a12.0134 12.0134 0 0 1 -12 12h-120a12.0134 12.0134 0 0 1 -12-12v-188h-16v188a28.0314 28.0314 0 0 0 28 28h120a28.0314 28.0314 0 0 0 28-28v-232.9727a17.9385 17.9385 0 0 0 -3.0234-9.9843zm-44.9766-51.043a2.0023 2.0023 0 0 1 -2 2h-76a2.0023 2.0023 0 0 1 -2-2v-28a2.0023 2.0023 0 0 1 2-2h76a2.0023 2.0023 0 0 1 2 2z"/></g><path d="m112 64h16v48h-16z"/></g></g></svg>