<svg id="Capa_1" enable-background="new 0 0 512 512" height="512" viewBox="0 0 512 512" width="512" xmlns="http://www.w3.org/2000/svg"><g><g><path d="m427.623 188.439c0-7.595-4.855-14.282-12.081-16.641-76.053-24.833-135.694-39.66-159.542-39.66-23.847 0-83.489 14.826-159.542 39.659-7.227 2.359-12.082 9.047-12.082 16.642v151.149c0 8.372 5.971 15.6 14.196 17.187 20.529 3.959 40.038 7.524 57.986 10.596.428.073.854.108 1.274.108 3.586 0 6.758-2.582 7.384-6.236.699-4.083-2.044-7.959-6.127-8.658-17.845-3.054-37.25-6.6-57.676-10.539-1.18-.228-2.037-1.261-2.037-2.458v-25.438c75.837 7.934 132.751 12.47 156.624 12.47 23.869 0 80.788-4.536 156.623-12.47v25.438c0 1.197-.856 2.23-2.037 2.458-74.073 14.287-131.862 22.815-154.586 22.815-11.73 0-33.115-2.285-61.841-6.609-4.096-.62-7.916 2.204-8.533 6.3s2.204 7.916 6.3 8.533c29.873 4.496 51.431 6.776 64.074 6.776 23.974 0 81.354-8.415 157.427-23.086 8.226-1.586 14.196-8.814 14.196-17.187zm-15.003 64.231h-313.24v-30.968c74.36-13.185 134.044-21.322 156.62-21.322s82.26 8.137 156.62 21.322zm-311.506-66.613c73.519-24.006 132.868-38.918 154.886-38.918 22.019 0 81.368 14.913 154.886 38.919 1.039.339 1.737 1.296 1.737 2.382v18.031c-74.965-13.241-133.154-21.091-156.623-21.091s-81.658 7.85-156.624 21.09v-18.031c0-1.085.698-2.043 1.738-2.382zm154.886 125.563c-23.189 0-81.574-4.684-156.624-12.552v-31.398h313.247v31.398c-75.045 7.868-133.437 12.552-156.623 12.552z"/><path d="m512 265.552c0-22.333-5.647-43.678-15.902-60.103-10.027-16.059-23.591-26.134-38.474-28.686v-2.783c0-11.851-7.555-22.334-18.8-26.087-14.997-5.005-38.275-12.573-64.01-20.198-3.97-1.175-8.145 1.089-9.322 5.06-1.177 3.972 1.089 8.145 5.06 9.322 25.532 7.565 48.637 15.076 63.522 20.045 5.113 1.707 8.549 6.472 8.549 11.859v182.082c0 5.951-4.234 11.107-10.067 12.261-40.359 7.979-138.354 26.539-176.557 26.539s-136.198-18.56-176.556-26.539c-5.833-1.154-10.067-6.31-10.067-12.261v-97.255c0-4.142-3.358-7.5-7.5-7.5s-7.5 3.358-7.5 7.5v80.181c-22.16-5.844-39.376-37.079-39.376-73.437 0-19.63 4.869-38.201 13.708-52.291 7.079-11.284 16.055-18.625 25.668-21.151v30.769c0 4.142 3.358 7.5 7.5 7.5s7.5-3.358 7.5-7.5v-48.899c0-5.387 3.436-10.152 8.549-11.859 31.615-10.552 137.891-44.982 178.075-44.982 15.518 0 42.485 5.115 80.153 15.203 4.001 1.073 8.114-1.304 9.185-5.305 1.072-4.001-1.303-8.113-5.305-9.185-38.933-10.427-67.206-15.713-84.033-15.713-41.286 0-141.608 31.997-182.824 45.753-11.245 3.753-18.8 14.237-18.8 26.087v2.792c-14.83 2.542-28.351 12.541-38.375 28.518-10.318 16.448-16.001 37.85-16.001 60.263 0 45.654 23.543 83.438 54.376 88.766v1.743c0 13.092 9.318 24.438 22.158 26.976 40.792 8.065 139.938 26.824 179.466 26.824s138.674-18.759 179.466-26.824c12.839-2.539 22.157-13.884 22.157-26.976v-1.742c30.813-5.333 54.377-43.19 54.377-88.767zm-54.376 73.435v-146.882c9.652 2.537 18.662 9.934 25.75 21.287 8.787 14.074 13.626 32.598 13.626 52.16 0 36.297-17.23 67.586-39.376 73.435z"/></g></g></svg>