<svg id="Layer_3" enable-background="new 0 0 64 64" height="512" viewBox="0 0 64 64" width="512" xmlns="http://www.w3.org/2000/svg"><g><path d="m62.222 56.025-18.108-4.116c-1.834-.416-3.114-2.02-3.114-3.9v-5.47c2.044-1.9 3.426-4.451 3.831-7.282l.036-.257h1.133c.469 0 .875-.326.976-.783l2-9c.016-.071.024-.144.024-.217v-6.471c1.878-1.329 3.408-3.109 4.438-5.169l.456-.912c.178-.355.128-.782-.126-1.087l-.193-.232c-3.281-3.938-7.644-6.676-12.616-7.919l-8.716-2.18c-.159-.04-.326-.04-.485 0l-8.716 2.179c-4.972 1.243-9.335 3.981-12.616 7.919l-.193.232c-.254.305-.304.732-.126 1.087l.456.912c1.03 2.061 2.56 3.841 4.438 5.169v6.472c0 .073.008.146.024.217l2 9c.1.457.506.783.975.783h1.133l.037.257c.405 2.831 1.787 5.382 3.831 7.282v5.47c0 1.88-1.28 3.484-3.114 3.9l-18.109 4.116c-.455.103-.778.508-.778.975v6h2v-2.125l12.396-1.653c1.484-.197 2.604-1.475 2.604-2.973v-1.86l1.668-.379 4.508 6.557c.161.234.414.388.695.425.043.005.086.008.129.008.237 0 .468-.084.651-.241l1.989-1.705 2.653 2.653c.187.188.442.293.707.293h2c.265 0 .52-.105.707-.293l2.653-2.653 1.989 1.705c.183.157.414.241.651.241.043 0 .086-.003.129-.008.281-.037.534-.191.695-.425l4.508-6.557 1.668.379v1.86c0 1.498 1.12 2.776 2.604 2.974l12.396 1.653v2.124h2v-6c0-.467-.323-.872-.778-.975zm-8.222.182v1.717l-2-.267v-1.905zm-13.917-33.54c-5.253-.876-10.806-.894-16.166 0l-6.917 1.153v-4.973l7.246-1.207c5.036-.84 10.365-.858 15.508 0l7.246 1.207v4.973zm1.604 2.295c-.95.667-2.094 1.038-3.292 1.038h-12.79c-1.198 0-2.342-.371-3.293-1.038l1.933-.322c5.036-.84 10.365-.858 15.508 0zm-29.336-12.497-.162-.324c2.981-3.466 6.894-5.88 11.338-6.991l8.473-2.119 8.473 2.119c4.444 1.111 8.357 3.525 11.338 6.991l-.162.324c-.898 1.797-2.248 3.335-3.896 4.48l-7.67-1.278c-5.253-.876-10.806-.894-16.166 0l-7.67 1.278c-1.649-1.145-2.998-2.683-3.896-4.48zm8.798 22.509-.159-1.115c-.071-.493-.492-.859-.99-.859h-1.198l-1.597-7.187 2.602-.434c1.458 1.655 3.557 2.621 5.798 2.621h12.789c2.241 0 4.341-.966 5.798-2.621l2.602.434-1.596 7.187h-1.198c-.498 0-.919.366-.99.859l-.159 1.115c-.48 3.361-2.58 6.273-5.615 7.79-3.235 1.618-7.236 1.618-10.472 0-3.035-1.517-5.135-4.43-5.615-7.79zm4.721 9.579c1.894.947 4.013 1.447 6.13 1.447s4.236-.5 6.13-1.447c.302-.151.584-.33.87-.503v3.459l-7 5.242-7-5.242v-3.459c.286.173.568.352.87.503zm-13.87 11.2v1.905l-2 .267v-1.717zm-9 2.045 5-1.136v1.529l-5 .667zm13-1.549c0 .499-.373.925-.868.991l-1.132.151v-2.093l2-.455zm9.194 2.268-3.538-5.146c1.478-.727 2.578-2.013 3.061-3.575l5.685 4.258zm7.392 1.483h-1.172l-2.251-2.251 2.837-2.432 2.837 2.432zm6.22-1.483-5.208-4.464 5.685-4.258c.483 1.562 1.583 2.849 3.061 3.575zm9.194-2.268v-1.406l2 .455v2.093l-1.132-.151c-.495-.066-.868-.492-.868-.991zm8 1.942v-1.529l5 1.136v1.059z"/><path d="m31.544 14.917.213.053c.08.02.161.03.243.03s.163-.01.243-.03l.213-.053c2.675-.669 4.544-3.063 4.544-5.821v-3.096c0-.552-.448-1-1-1h-8c-.552 0-1 .448-1 1v3.096c0 2.758 1.869 5.152 4.544 5.821zm-2.544-7.917h6v2.096c0 1.829-1.232 3.417-3 3.873-1.768-.457-3-2.044-3-3.873z"/></g></svg>