<svg height="512" viewBox="0 0 74 74" width="512" xmlns="http://www.w3.org/2000/svg"><g id="Numbers"><text fill="rgb(0,0,0)" font-family="ArialMT, Arial" font-size="18" transform="translate(31.995 -762.544)">8<tspan x="-5.005" y="124">18</tspan><tspan x="-5.005" y="248">28</tspan><tspan x="-5.005" y="372">38</tspan><tspan x="-5.005" y="496">48</tspan><tspan x="-5.005" y="620">58</tspan><tspan x="-5.005" y="744">68</tspan><tspan x="-5.005" y="868">78</tspan><tspan x="-5.005" y="992">88</tspan><tspan x="-5.005" y="1116">98</tspan><tspan x="-10.011" y="1240">108</tspan><tspan letter-spacing="-.074em" x="-9.343" y="1364">1</tspan><tspan x="-.668" y="1364">18</tspan><tspan x="-10.011" y="1488">128</tspan><tspan x="-10.011" y="1612">138</tspan><tspan x="-10.011" y="1736">148</tspan><tspan x="-10.011" y="1860">158</tspan><tspan x="-10.011" y="1984">168</tspan><tspan x="-10.011" y="2108">178</tspan><tspan x="-10.011" y="2232">188</tspan><tspan x="-10.011" y="2356">198</tspan><tspan x="-10.011" y="2480">208</tspan><tspan x="-10.011" y="2604">218</tspan><tspan x="-10.011" y="2728">228</tspan><tspan x="-10.011" y="2852">238</tspan><tspan x="-10.011" y="2976">248</tspan><tspan x="-10.011" y="3100">258</tspan><tspan x="-10.011" y="3224">268</tspan><tspan x="-10.011" y="3348">278</tspan><tspan x="-10.011" y="3472">288</tspan><tspan x="-10.011" y="3596">298</tspan></text></g><g id="_2_PT" data-name="2 PT"><path d="m63.683 57.968h-9.413v-2h9.413a3.321 3.321 0 0 0 3.317-3.317v-23.334a3.321 3.321 0 0 0 -3.317-3.317h-53.366a3.321 3.321 0 0 0 -3.317 3.317v23.334a3.321 3.321 0 0 0 3.317 3.317h9.413v2h-9.413a5.324 5.324 0 0 1 -5.317-5.317v-23.334a5.324 5.324 0 0 1 5.317-5.317h53.366a5.324 5.324 0 0 1 5.317 5.317v23.334a5.324 5.324 0 0 1 -5.317 5.317z"/><path d="m53 26h-32a1 1 0 0 1 -1-1v-22a1 1 0 0 1 1-1h24v2h-23v20h30v-13h2v14a1 1 0 0 1 -1 1z"/><path d="m53 12h-8a1 1 0 0 1 -1-1v-8a1 1 0 0 1 1.707-.707l8 8a1 1 0 0 1 -.707 1.707zm-7-2h4.586l-4.586-4.586z"/><path d="m15 25h-2v-7a1 1 0 0 1 1-1h6.81v2h-5.81z"/><path d="m61 25h-2v-6h-6v-2h7a1 1 0 0 1 1 1z"/><path d="m15.413 48h43.174v2h-43.174z"/><path d="m54 72h-34a1 1 0 0 1 -1-1v-22a1 1 0 0 1 1-1h34a1 1 0 0 1 1 1v22a1 1 0 0 1 -1 1zm-33-2h32v-20h-32z"/><path d="m59 37a4 4 0 1 1 4-4 4 4 0 0 1 -4 4zm0-6a2 2 0 1 0 2 2 2 2 0 0 0 -2-2z"/><path d="m26 53h22v2h-22z"/><path d="m26 59h22v2h-22z"/><path d="m26 65h22v2h-22z"/></g></svg>