<svg id="Capa_1" enable-background="new 0 0 512 512" height="512" viewBox="0 0 512 512" width="512" xmlns="http://www.w3.org/2000/svg"><g><path d="m422.755 269.116v-38.655c28.2-.759 50.911-23.951 50.911-52.37v-32.382c9.001-.049 16.31-7.385 16.31-16.402v-38.89c0-9.047-7.356-16.406-16.399-16.406h-15.512v-64.011c0-5.522-4.478-10-10-10s-10 4.478-10 10v64.011h-50.619v-64.011c0-5.522-4.478-10-10-10s-10 4.478-10 10v64.011h-15.484c-9.059 0-16.428 7.359-16.428 16.406v38.891c0 9.007 7.306 16.336 16.311 16.4v32.383c0 28.42 22.711 51.612 50.911 52.37v38.655c-44.228 4.989-78.718 42.653-78.718 88.234 0 45.596 34.49 83.271 78.718 88.262v7.887c0 21.229-17.248 38.5-38.448 38.5h-178.559c-21.2 0-38.448-17.271-38.448-38.5v-28.295h89.416c15.116 0 27.415-12.307 27.415-27.433v-118.09c0-5.522-4.478-10-10-10s-10 4.478-10 10v118.09c0 4.029-3.395 7.433-7.414 7.433h-198.804c-4.019 0-7.414-3.403-7.414-7.433v-326.005c0-4.029 3.395-7.433 7.414-7.433h28.882 141.011 28.91c4.019 0 7.414 3.403 7.414 7.433v118.117c0 5.522 4.477 10 10 10s10-4.478 10-10v-118.117c0-15.126-12.298-27.433-27.415-27.433h-18.91v-12.167c.001-17.736-14.418-32.166-32.142-32.166h-96.726c-17.723 0-32.142 14.43-32.142 32.166v12.167h-18.882c-15.116 0-27.414 12.307-27.414 27.433v326.007c0 15.126 12.298 27.433 27.414 27.433h89.387v28.294c0 32.257 26.22 58.5 58.448 58.5h178.558c32.229 0 58.448-26.243 58.448-58.5v-7.887c44.244-4.989 78.745-42.666 78.745-88.263 0-45.582-34.501-83.246-78.745-88.234zm-345.959-236.95c0-6.708 5.447-12.166 12.142-12.166h96.726c6.696 0 12.143 5.458 12.143 12.166v12.167h-121.011zm278.737 61.845h114.442v31.703h-114.442zm16.311 84.08v-32.377h81.822v32.377c0 17.869-14.504 32.406-32.332 32.406h-17.159c-17.827 0-32.331-14.537-32.331-32.406zm40.911 248.09c-37.891 0-68.718-30.877-68.718-68.83 0-37.938 30.827-68.802 68.718-68.802 37.906 0 68.745 30.864 68.745 68.802 0 37.953-30.839 68.83-68.745 68.83z"/><path d="m429.263 347.351h-16.874l13.339-26.818c2.46-4.944.445-10.947-4.5-13.406-4.945-2.461-10.948-.445-13.406 4.5l-20.528 41.271c-3.242 6.532 1.679 14.453 8.974 14.453h16.867l-13.33 26.854c-2.456 4.947-.437 10.948 4.511 13.403 1.429.709 2.945 1.045 4.438 1.045 3.679 0 7.219-2.037 8.965-5.556l20.501-41.3c.186-.375.343-.77.481-1.165 2.214-6.371-2.672-13.281-9.438-13.281z"/><path d="m62.463 86.342c-5.523 0-10 4.478-10 10v276.854c0 5.522 4.477 10 10 10h149.704c5.523 0 10-4.478 10-10v-276.854c0-5.522-4.477-10-10-10zm139.704 276.854h-129.704v-47.974h129.704zm0-67.973h-129.704v-44.573h129.704zm0-64.573h-129.704v-50.468h129.704zm0-70.467h-129.704v-53.841h129.704z"/><path d="m254.131 224.783c-5.523 0-10 4.478-10 10v.028c0 5.522 4.477 9.986 10 9.986s10-4.492 10-10.015-4.477-9.999-10-9.999z"/></g></svg>