<svg height="496pt" viewBox="-100 0 496 496" width="496pt" xmlns="http://www.w3.org/2000/svg"><path d="m136 288c22.082031-.027344 39.972656-17.917969 40-40v-48c0-22.089844-17.910156-40-40-40s-40 17.910156-40 40v48c.027344 22.082031 17.917969 39.972656 40 40zm-24-88c0-13.253906 10.746094-24 24-24s24 10.746094 24 24v48c0 13.253906-10.746094 24-24 24s-24-10.746094-24-24zm0 0"/><path d="m193.144531 248.097656c-4.371093-.636718-8.425781 2.390625-9.066406 6.757813-3.699219 23.6875-24.105469 41.148437-48.078125 41.148437s-44.378906-17.460937-48.078125-41.148437c-.636719-4.375-4.699219-7.402344-9.074219-6.765625-4.375.632812-7.402344 4.695312-6.769531 9.070312 4.398437 28.597656 27.28125 50.78125 56 54.296875 0 .191407-.109375.351563-.109375.542969v24c0 4.417969 3.582031 8 8 8s8-3.582031 8-8v-24c0-.191406-.097656-.351562-.113281-.542969 28.722656-3.515625 51.601562-25.699219 56-54.296875.636719-4.351562-2.363281-8.402344-6.710938-9.0625zm0 0"/><path d="m216 128h-160c-13.253906 0-24 10.746094-24 24v192c0 13.253906 10.746094 24 24 24h160c13.253906 0 24-10.746094 24-24v-192c0-13.253906-10.746094-24-24-24zm8 216c0 4.417969-3.582031 8-8 8h-160c-4.417969 0-8-3.582031-8-8v-192c0-4.417969 3.582031-8 8-8h160c4.417969 0 8 3.582031 8 8zm0 0"/><path d="m288 232c4.417969 0 8-3.582031 8-8v-56c0-4.417969-3.582031-8-8-8h-16v-24c-.058594-16.695312-10.480469-31.601562-26.144531-37.382812-.648438-.722657-1.421875-1.324219-2.28125-1.777344-.269531-.136719-27.574219-14.304688-27.574219-32.839844v-56c0-4.417969-3.582031-8-8-8h-144c-4.417969 0-8 3.582031-8 8v56c0 15.527344-19.921875 28.976562-27.59375 32.847656-.847656.445313-1.609375 1.046875-2.238281 1.769532-15.683594 5.761718-26.121094 20.675781-26.167969 37.382812v224c.0585938 16.695312 10.480469 31.601562 26.144531 37.382812.648438.722657 1.421875 1.324219 2.28125 1.777344.269531.136719 27.574219 14.304688 27.574219 32.839844v56c0 4.417969 3.582031 8 8 8h144c4.417969 0 8-3.582031 8-8v-56c0-15.527344 19.921875-28.976562 27.59375-32.847656.847656-.445313 1.609375-1.046875 2.238281-1.769532 15.683594-5.761718 26.121094-20.675781 26.167969-37.382812v-24h16c4.417969 0 8-3.582031 8-8v-56c0-4.417969-3.582031-8-8-8h-16v-32zm-8-56v40h-8v-40zm-208-112v-48h128v48c.65625 12.328125 6.265625 23.867188 15.550781 32h-159.101562c9.285156-8.132812 14.894531-19.671875 15.550781-32zm128 368v48h-128v-48c-.65625-12.328125-6.265625-23.867188-15.550781-32h159.101562c-9.285156 8.132812-14.894531 19.671875-15.550781 32zm56-72c0 13.253906-10.746094 24-24 24h-192c-13.253906 0-24-10.746094-24-24v-224c0-13.253906 10.746094-24 24-24h192c13.253906 0 24 10.746094 24 24zm24-80v40h-8v-40zm0 0"/></svg>